<mxfile host="app.diagrams.net" modified="2023-11-13T15:13:44.706Z" agent="Mozilla/5.0 (Windows NT 10.0; Win64; x64) AppleWebKit/537.36 (KHTML, like Gecko) Chrome/110.0.0.0 Safari/537.36" etag="ATgucK01K34HIUX-hPNh" version="22.1.0" type="device">
  <diagram name="Página-1" id="Q93twj7yIHygiXeUUwat">
    <mxGraphModel dx="795" dy="466" grid="1" gridSize="10" guides="1" tooltips="1" connect="1" arrows="1" fold="1" page="1" pageScale="1" pageWidth="1000" pageHeight="1169" math="0" shadow="0">
      <root>
        <mxCell id="0" />
        <mxCell id="1" parent="0" />
        <mxCell id="WBHFmNBIhvhbnHJHYqrC-1" value="&lt;font style=&quot;font-size: 18px&quot;&gt;ARTESANO(&lt;u style=&quot;border-color: var(--border-color); color: rgb(255, 0, 0);&quot;&gt;DNI_artesano&lt;/u&gt;&lt;font color=&quot;#ff0000&quot;&gt;, Teléfono, Correo&lt;/font&gt;, Nombre, Apellidos,&amp;nbsp;Dirección)&lt;/font&gt;" style="text;html=1;align=left;verticalAlign=middle;resizable=0;points=[];autosize=1;" vertex="1" parent="1">
          <mxGeometry x="240" y="160" width="630" height="40" as="geometry" />
        </mxCell>
        <mxCell id="WBHFmNBIhvhbnHJHYqrC-2" value="&lt;font style=&quot;font-size: 18px&quot;&gt;REGISTRA(&lt;u style=&quot;border-color: var(--border-color); color: rgb(255, 0, 0);&quot;&gt;DNI_artesano&lt;/u&gt;,&amp;nbsp;&lt;u style=&quot;border-color: var(--border-color); color: rgb(255, 0, 0);&quot;&gt;cod_Producto&lt;/u&gt;)&lt;/font&gt;" style="text;html=1;align=left;verticalAlign=middle;resizable=0;points=[];autosize=1;" vertex="1" parent="1">
          <mxGeometry x="240" y="250" width="360" height="40" as="geometry" />
        </mxCell>
        <mxCell id="WBHFmNBIhvhbnHJHYqrC-3" value="&lt;font style=&quot;font-size: 18px&quot;&gt;PRODUCTO(&lt;u style=&quot;border-color: var(--border-color); color: rgb(255, 0, 0);&quot;&gt;cod_Producto,&lt;/u&gt;&lt;span style=&quot;border-color: var(--border-color);&quot;&gt;&amp;nbsp;Nombre, Precio, Cantidad disponible&lt;/span&gt;)&lt;/font&gt;" style="text;html=1;align=left;verticalAlign=middle;resizable=0;points=[];autosize=1;" vertex="1" parent="1">
          <mxGeometry x="240" y="330" width="550" height="40" as="geometry" />
        </mxCell>
        <mxCell id="WBHFmNBIhvhbnHJHYqrC-5" style="edgeStyle=orthogonalEdgeStyle;rounded=0;orthogonalLoop=1;jettySize=auto;html=1;entryX=0.137;entryY=1.1;entryDx=0;entryDy=0;entryPerimeter=0;" edge="1" parent="1" source="WBHFmNBIhvhbnHJHYqrC-2" target="WBHFmNBIhvhbnHJHYqrC-1">
          <mxGeometry relative="1" as="geometry">
            <Array as="points">
              <mxPoint x="380" y="225" />
              <mxPoint x="326" y="225" />
            </Array>
          </mxGeometry>
        </mxCell>
        <mxCell id="WBHFmNBIhvhbnHJHYqrC-6" style="edgeStyle=orthogonalEdgeStyle;rounded=0;orthogonalLoop=1;jettySize=auto;html=1;entryX=0.092;entryY=-0.004;entryDx=0;entryDy=0;entryPerimeter=0;" edge="1" parent="1" source="WBHFmNBIhvhbnHJHYqrC-2" target="WBHFmNBIhvhbnHJHYqrC-3">
          <mxGeometry relative="1" as="geometry">
            <Array as="points">
              <mxPoint x="510" y="310" />
              <mxPoint x="291" y="310" />
            </Array>
          </mxGeometry>
        </mxCell>
      </root>
    </mxGraphModel>
  </diagram>
</mxfile>
